<svg width="22" height="22" viewBox="0 0 22 22" fill="none" xmlns="http://www.w3.org/2000/svg">
<g clip-path="url(#clip0_3816_16143)">
<path d="M7.33594 10.0834H14.6693V11.9167H7.33594V10.0834ZM18.4276 11.0001H20.1693C20.1693 8.47008 18.1159 6.41675 15.5859 6.41675H11.9193V8.15841H15.5859C17.1534 8.15841 18.4276 9.43258 18.4276 11.0001ZM3.5776 11.0001C3.5776 9.43258 4.85177 8.15841 6.41927 8.15841H10.0859V6.41675H6.41927C3.88927 6.41675 1.83594 8.47008 1.83594 11.0001C1.83594 13.5301 3.88927 15.5834 6.41927 15.5834H10.0859V13.8417H6.41927C4.85177 13.8417 3.5776 12.5676 3.5776 11.0001ZM17.4193 11.0001H15.5859V13.7501H12.8359V15.5834H15.5859V18.3334H17.4193V15.5834H20.1693V13.7501H17.4193V11.0001Z" fill="#2388FF"/>
</g>
<defs>
<clipPath id="clip0_3816_16143">
<rect width="22" height="22" fill="white"/>
</clipPath>
</defs>
</svg>
