<svg width="18" height="19" viewBox="0 0 18 19" fill="none" xmlns="http://www.w3.org/2000/svg">
<path d="M17.8488 9.66195C17.8488 9.06992 17.5201 8.5364 16.9969 8.26793L2.30197 0.722132C1.7435 0.435582 1.09296 0.500981 0.603332 0.894233C0.114563 1.28662 -0.0893771 1.90877 0.0706774 2.51457L1.71167 8.74895L8.5157 8.74809C9.01996 8.74809 9.4287 9.15683 9.4287 9.66109C9.4287 10.1653 9.01996 10.5741 8.5157 10.5741L1.71081 10.5741L0.0698178 16.8085C-0.0738868 17.3566 0.0792836 17.9177 0.472536 18.3109C0.51384 18.3522 0.558586 18.3918 0.605054 18.4297C1.09382 18.8221 1.74523 18.8883 2.30197 18.6018L16.9969 11.0577C17.5226 10.7866 17.8488 10.2523 17.8488 9.66195Z" fill="#2726DD"/>
</svg>
