<svg width="22" height="29" viewBox="0 0 22 29" fill="none" xmlns="http://www.w3.org/2000/svg">
<g clip-path="url(#clip0_2462_358)">
<path d="M21.5038 5.18258L20.1264 5.47911C20.1049 5.45998 20.0834 5.44085 20.0547 5.4265L18.2994 4.48669C18.2205 4.36473 18.0818 4.28821 17.9359 4.2906L16.0492 3.27906C16.0324 3.26949 16.0157 3.25992 15.9965 3.25036L14.808 2.61187V0.930739C14.808 0.823128 14.7554 0.7203 14.6669 0.658124C14.5785 0.595949 14.4637 0.581601 14.3632 0.617471L0.498139 5.62737C0.455094 5.64411 0.419224 5.66802 0.385745 5.69911C0.275742 5.77803 0.206393 5.90477 0.206393 6.04347L0.199219 25.3967C0.199219 25.545 0.278134 25.6837 0.404876 25.7626L4.79063 28.4338C4.85998 28.4744 4.9365 28.496 5.01303 28.496C5.05846 28.496 5.1039 28.4864 5.14933 28.4696L21.6545 25.0763C21.7956 25.038 21.8936 24.9113 21.8936 24.7654V5.49585C21.8936 5.29258 21.7047 5.13953 21.5038 5.18258ZM14.325 3.10927L14.93 3.4321L2.6408 6.75131C2.60254 6.76088 2.56906 6.77762 2.53797 6.79675L2.04057 6.46674L14.325 3.10927ZM4.58497 27.3074L1.05533 25.1576L1.06011 6.84457L4.58258 9.18811V27.3098L4.58497 27.3074ZM3.8867 7.69351L3.46821 7.41611L15.9296 4.04907C15.9607 4.0419 15.9894 4.02994 16.0157 4.01559L16.9507 4.51778L3.8867 7.69351ZM18.4883 18.3351C18.4883 18.5168 18.364 18.6698 18.1894 18.7105L8.30354 20.9775C8.27484 20.9847 8.24615 20.9871 8.21506 20.9871C8.00223 20.9871 7.83005 20.8125 7.83005 20.5997V14.7743C7.83005 14.5926 7.9544 14.4395 8.12897 14.3989L18.0149 12.1319C18.0435 12.1247 18.0746 12.1223 18.1033 12.1223C18.3162 12.1223 18.4883 12.2945 18.4883 12.5097V18.3351ZM5.3263 8.66679C5.30238 8.64288 5.27847 8.61896 5.24977 8.59983L4.8552 8.33917L18.0436 5.13236C18.0436 5.13236 18.0651 5.12519 18.077 5.1204L19.1412 5.68955L5.3263 8.6644V8.66679Z" fill="#2726DD"/>
<rect x="6.87695" y="12.1643" width="12.6981" height="9.65769" fill="#2726DD"/>
<path d="M15.8966 14.5643L16.3742 13.5134L17.4253 13.0359L16.3742 12.5583L15.8966 11.5074L15.4189 12.5583L14.3678 13.0359L15.4189 13.5134L15.8966 14.5643ZM13.0314 14.7556L12.0761 12.6549L11.1207 14.7556L9.01953 15.7108L11.1207 16.6659L12.0761 18.7667L13.0314 16.6659L15.1327 15.7108L13.0314 14.7556ZM15.8966 16.8564L15.4189 17.9072L14.3678 18.3848L15.4189 18.8624L15.8966 19.9132L16.3742 18.8624L17.4253 18.3848L16.3742 17.9072L15.8966 16.8564Z" fill="white"/>
</g>
<defs>
<clipPath id="clip0_2462_358">
<rect width="21.692" height="27.9" fill="white" transform="translate(0.199219 0.599976)"/>
</clipPath>
</defs>
</svg>
