<svg width="111" height="75" viewBox="0 0 111 75" fill="none" xmlns="http://www.w3.org/2000/svg">
<path d="M8.72604 7.24951H6.66016V34.4011H8.72604V7.24951Z" fill="#FF6632"/>
<path d="M7.69508 14.3477C10.6624 14.3477 13.0679 11.9422 13.0679 8.97486C13.0679 6.00754 10.6624 3.60205 7.69508 3.60205C4.72776 3.60205 2.32227 6.00754 2.32227 8.97486C2.32227 11.9422 4.72776 14.3477 7.69508 14.3477Z" fill="#FF6632"/>
<path d="M103.539 7.24951H101.473V34.4011H103.539V7.24951Z" fill="#FF6632"/>
<path d="M107.88 8.97499C107.88 11.9414 105.474 14.3478 102.508 14.3478C99.5412 14.3478 97.1348 11.9414 97.1348 8.97499C97.1348 6.00859 99.5412 3.60217 102.508 3.60217C105.474 3.60217 107.88 6.00859 107.88 8.97499Z" fill="#FF6632"/>
<path d="M110.204 35.7254V56.5658C110.204 59.9484 107.464 62.6803 104.089 62.6803H92.0117V29.6185H104.089C107.464 29.6185 110.204 32.3579 110.204 35.7329V35.7254Z" fill="#FF6632"/>
<path d="M18.1995 29.611V62.6727H6.11441C2.73938 62.6727 0 59.9409 0 56.5583V35.7178C0 32.3428 2.73938 29.6034 6.11441 29.6034H18.1995V29.611Z" fill="#FF6632"/>
<path d="M9.12316 29.611H18.1964V62.6727H6.66377C6.42161 61.6662 6.29297 60.6219 6.29297 59.5474V44.617C6.29297 39.3501 7.29186 34.2951 9.13072 29.6034L9.12316 29.611Z" fill="black" fill-opacity="0.4"/>
<path d="M103.915 44.6171V59.5475C103.915 60.6221 103.787 61.6664 103.544 62.6728H92.0117V29.6111H101.085C102.916 34.3028 103.923 39.3503 103.923 44.6247L103.915 44.6171Z" fill="black" fill-opacity="0.4"/>
<path d="M55.0995 0C30.4602 0 10.4824 19.9778 10.4824 44.6246V59.555C10.4824 67.6142 17.013 74.1448 25.0723 74.1448H85.1418C93.2011 74.1448 99.7317 67.6142 99.7317 59.555V44.6246C99.7241 19.9778 79.7463 0 55.0995 0Z" fill="#2726DD"/>
<path d="M73.2206 20.6437H36.9806C28.4255 20.6437 21.4902 27.5789 21.4902 36.134V36.1416C21.4902 44.6967 28.4255 51.632 36.9806 51.632H73.2206C81.7757 51.632 88.7109 44.6967 88.7109 36.1416V36.134C88.7109 27.5789 81.7757 20.6437 73.2206 20.6437Z" fill="white"/>
<path d="M45.2236 33.4402C43.8539 32.4338 42.0529 31.8813 40.1459 31.8813C39.3816 31.8813 38.6097 31.9722 37.8681 32.1538C35.5601 32.7062 33.7666 34.0456 32.8283 35.9223C32.1851 37.2012 32.7072 38.7676 33.9861 39.4184C34.3493 39.6 34.7504 39.6908 35.1515 39.6908C36.1428 39.6908 37.0357 39.1384 37.4746 38.253C37.8152 37.5796 38.7081 37.2996 39.0789 37.2088C39.4119 37.1255 39.76 37.0877 40.1156 37.0877C40.9178 37.0877 41.6669 37.292 42.1361 37.6325C42.3102 37.7612 42.4464 37.9277 42.5296 38.132C42.9383 39.0855 43.8766 39.6984 44.9209 39.6984C45.2766 39.6984 45.6247 39.6303 45.9501 39.4865C47.2668 38.919 47.8722 37.3828 47.3046 36.0661C46.8506 35.0218 46.1317 34.1061 45.216 33.4402H45.2236Z" fill="#2726DD"/>
<path d="M77.4371 36.0661C76.983 35.0218 76.2641 34.1061 75.3485 33.4402C73.9788 32.4338 72.1777 31.8813 70.2708 31.8813C69.4989 31.8813 68.7346 31.9722 67.993 32.1538C65.685 32.7062 63.8915 34.0456 62.9532 35.9223C62.6429 36.5428 62.5899 37.2466 62.8094 37.905C63.0288 38.5633 63.4904 39.1006 64.111 39.4109C64.4742 39.5925 64.8753 39.6833 65.2763 39.6833C66.2677 39.6833 67.1606 39.1309 67.5995 38.2455C67.94 37.572 68.833 37.292 69.2038 37.2012C69.5367 37.1179 69.8848 37.0801 70.2405 37.0801C71.0426 37.0801 71.7918 37.2844 72.261 37.625C72.435 37.7536 72.5712 37.9201 72.6545 38.1244C73.0631 39.0779 74.0015 39.6908 75.0458 39.6908C75.4014 39.6908 75.7495 39.6227 76.0749 39.479C77.3916 38.9114 77.997 37.3752 77.4295 36.0585L77.4371 36.0661Z" fill="#2726DD"/>
</svg>
