<svg width="17" height="17" viewBox="0 0 17 17" fill="none" xmlns="http://www.w3.org/2000/svg">
<path d="M9.03503 8.50004L7.15482 10.3802C7.00968 10.5254 6.93711 10.7068 6.93711 10.9245C6.93711 11.1422 7.00968 11.3302 7.15482 11.4886C7.31315 11.6469 7.50117 11.7261 7.71888 11.7261C7.93659 11.7261 8.12461 11.6469 8.28294 11.4886L10.7173 9.05421C10.8757 8.89587 10.9548 8.71115 10.9548 8.50004C10.9548 8.28893 10.8757 8.10421 10.7173 7.94587L8.26315 5.49171C8.10482 5.33337 7.9201 5.25751 7.70898 5.2641C7.49787 5.2707 7.31315 5.35317 7.15482 5.5115C7.00968 5.66983 6.93381 5.85455 6.92721 6.06567C6.92062 6.27678 6.99648 6.4615 7.15482 6.61983L9.03503 8.50004ZM8.50065 16.4167C7.40551 16.4167 6.37635 16.2089 5.41315 15.7933C4.44996 15.3776 3.61211 14.8136 2.89961 14.1011C2.18711 13.3886 1.62305 12.5507 1.20742 11.5875C0.791797 10.6243 0.583984 9.59518 0.583984 8.50004C0.583984 7.4049 0.791797 6.37574 1.20742 5.41254C1.62305 4.44935 2.18711 3.6115 2.89961 2.899C3.61211 2.1865 4.44996 1.62244 5.41315 1.20681C6.37635 0.791187 7.40551 0.583374 8.50065 0.583374C9.59579 0.583374 10.625 0.791187 11.5882 1.20681C12.5513 1.62244 13.3892 2.1865 14.1017 2.899C14.8142 3.6115 15.3783 4.44935 15.7939 5.41254C16.2095 6.37574 16.4173 7.4049 16.4173 8.50004C16.4173 9.59518 16.2095 10.6243 15.7939 11.5875C15.3783 12.5507 14.8142 13.3886 14.1017 14.1011C13.3892 14.8136 12.5513 15.3776 11.5882 15.7933C10.625 16.2089 9.59579 16.4167 8.50065 16.4167Z" fill="#919399"/>
</svg>
