<svg width="13" height="20" viewBox="0 0 13 20" fill="none" xmlns="http://www.w3.org/2000/svg">
<path d="M4 14L4 6L6 6L6 14L4 14ZM5 1.9L5 -2.18557e-07C2.24 -9.79135e-08 -7.76314e-07 2.24 -6.55671e-07 5L-4.80825e-07 9L1.9 9L1.9 5C1.9 3.29 3.29 1.9 5 1.9ZM5 18.1C3.29 18.1 1.9 16.71 1.9 15L1.9 11L-3.93402e-07 11L-2.18557e-07 15C-9.79135e-08 17.76 2.24 20 5 20C7.76 20 10 17.76 10 15L10 11L8.1 11L8.1 15C8.1 16.71 6.71 18.1 5 18.1ZM5 3L5 5L8 5L8 8L10 8L10 5L13 5L13 3L10 3L10 -4.37114e-07L8 -3.49691e-07L8 3L5 3Z" fill="#CBCBCB"/>
</svg>
