<svg width="17" height="18" viewBox="0 0 17 18" fill="none" xmlns="http://www.w3.org/2000/svg">
<path d="M8.33333 4.83329C7.875 4.83329 7.5 5.20829 7.5 5.66663V8.16663H5C4.54167 8.16663 4.16667 8.54163 4.16667 8.99996C4.16667 9.45829 4.54167 9.83329 5 9.83329H7.5V12.3333C7.5 12.7916 7.875 13.1666 8.33333 13.1666C8.79167 13.1666 9.16667 12.7916 9.16667 12.3333V9.83329H11.6667C12.125 9.83329 12.5 9.45829 12.5 8.99996C12.5 8.54163 12.125 8.16663 11.6667 8.16663H9.16667V5.66663C9.16667 5.20829 8.79167 4.83329 8.33333 4.83329ZM8.33333 0.666626C3.73333 0.666626 0 4.39996 0 8.99996C0 13.6 3.73333 17.3333 8.33333 17.3333C12.9333 17.3333 16.6667 13.6 16.6667 8.99996C16.6667 4.39996 12.9333 0.666626 8.33333 0.666626ZM8.33333 15.6666C4.65833 15.6666 1.66667 12.675 1.66667 8.99996C1.66667 5.32496 4.65833 2.33329 8.33333 2.33329C12.0083 2.33329 15 5.32496 15 8.99996C15 12.675 12.0083 15.6666 8.33333 15.6666Z" fill="#666F8D"/>
</svg>
