<svg width="20" height="21" viewBox="0 0 20 21" fill="none" xmlns="http://www.w3.org/2000/svg">
<path d="M16 1.32373C15.2044 1.32373 14.4413 1.6398 13.8787 2.20241C13.3161 2.76502 13 3.52808 13 4.32373V16.3237C13 17.1194 13.3161 17.8824 13.8787 18.4451C14.4413 19.0077 15.2044 19.3237 16 19.3237C16.7956 19.3237 17.5587 19.0077 18.1213 18.4451C18.6839 17.8824 19 17.1194 19 16.3237C19 15.5281 18.6839 14.765 18.1213 14.2024C17.5587 13.6398 16.7956 13.3237 16 13.3237H4C3.20435 13.3237 2.44129 13.6398 1.87868 14.2024C1.31607 14.765 1 15.5281 1 16.3237C1 17.1194 1.31607 17.8824 1.87868 18.4451C2.44129 19.0077 3.20435 19.3237 4 19.3237C4.79565 19.3237 5.55871 19.0077 6.12132 18.4451C6.68393 17.8824 7 17.1194 7 16.3237V4.32373C7 3.52808 6.68393 2.76502 6.12132 2.20241C5.55871 1.6398 4.79565 1.32373 4 1.32373C3.20435 1.32373 2.44129 1.6398 1.87868 2.20241C1.31607 2.76502 1 3.52808 1 4.32373C1 5.11938 1.31607 5.88244 1.87868 6.44505C2.44129 7.00766 3.20435 7.32373 4 7.32373H16C16.7956 7.32373 17.5587 7.00766 18.1213 6.44505C18.6839 5.88244 19 5.11938 19 4.32373C19 3.52808 18.6839 2.76502 18.1213 2.20241C17.5587 1.6398 16.7956 1.32373 16 1.32373Z" stroke="#666F8D" stroke-width="2" stroke-linecap="round" stroke-linejoin="round"/>
</svg>
