<svg width="17" height="17" viewBox="0 0 17 17" fill="none" xmlns="http://www.w3.org/2000/svg">
<path fill-rule="evenodd" clip-rule="evenodd" d="M11.9862 8.78509L14.3432 6.42806L14.8146 6.89947C15.0739 7.15874 15.4982 7.15874 15.7574 6.89947C16.0167 6.6402 16.0167 6.21593 15.7574 5.95666L11.0434 1.24261C10.7841 0.983341 10.3599 0.983341 10.1006 1.24261C9.84131 1.50189 9.84131 1.92615 10.1006 2.18542L10.572 2.65683L8.21497 5.01385C7.43244 5.79638 6.16907 5.79638 5.38654 5.01385L4.44373 5.95666L7.25802 8.77094L3.95819 12.0708L3.95819 13.0136L4.90099 13.0136L8.20083 9.71375L11.0434 12.5563L11.9862 11.6135C11.2037 10.831 11.2037 9.56762 11.9862 8.78509Z" fill="#919399"/>
</svg>
