<svg width="9" height="10" viewBox="0 0 9 10" fill="none" xmlns="http://www.w3.org/2000/svg">
<path d="M0.74625 9.19322C1.0225 9.45322 1.46875 9.45322 1.745 9.19322L4.50042 6.61322L7.24875 9.19988C7.525 9.45988 7.97125 9.45988 8.2475 9.19988C8.52375 8.93988 8.52375 8.51988 8.2475 8.25988L4.99625 5.19988C4.72 4.93988 4.27375 4.93988 3.9975 5.19988L0.74625 8.25322C0.47 8.51322 0.47 8.93322 0.74625 9.19322Z" fill="#FF0000"/>
<path d="M0.74625 4.79966C1.0225 5.05966 1.46875 5.05966 1.745 4.79966L4.50042 2.21966L7.24875 4.80633C7.525 5.06633 7.97125 5.06633 8.2475 4.80633C8.52375 4.54633 8.52375 4.12633 8.2475 3.86633L4.99625 0.806328C4.72 0.546328 4.27375 0.546328 3.9975 0.806328L0.74625 3.85966C0.47 4.11966 0.47 4.53966 0.74625 4.79966Z" fill="#FF0000"/>
</svg>
