<svg width="17" height="16" viewBox="0 0 17 16" fill="none" xmlns="http://www.w3.org/2000/svg">
<path d="M7.96498 7.99996L9.84518 6.11975C9.99032 5.97461 10.0629 5.79319 10.0629 5.57548C10.0629 5.35777 9.99032 5.16975 9.84518 5.01142C9.68685 4.85308 9.49883 4.77392 9.28112 4.77392C9.06341 4.77392 8.87539 4.85308 8.71706 5.01142L6.28268 7.44579C6.12435 7.60413 6.04518 7.78885 6.04518 7.99996C6.04518 8.21107 6.12435 8.39579 6.28268 8.55413L8.73685 11.0083C8.89518 11.1666 9.0799 11.2425 9.29102 11.2359C9.50213 11.2293 9.68685 11.1468 9.84518 10.9885C9.99032 10.8302 10.0662 10.6454 10.0728 10.4343C10.0794 10.2232 10.0035 10.0385 9.84518 9.88017L7.96498 7.99996ZM8.49935 0.0832923C9.59449 0.0832924 10.6237 0.291105 11.5869 0.706729C12.55 1.12236 13.3879 1.68642 14.1004 2.39892C14.8129 3.11142 15.377 3.94926 15.7926 4.91246C16.2082 5.87565 16.416 6.90482 16.416 7.99996C16.416 9.0951 16.2082 10.1243 15.7926 11.0875C15.377 12.0507 14.8129 12.8885 14.1004 13.601C13.3879 14.3135 12.55 14.8776 11.5868 15.2932C10.6237 15.7088 9.59449 15.9166 8.49935 15.9166C7.40421 15.9166 6.37504 15.7088 5.41185 15.2932C4.44865 14.8776 3.61081 14.3135 2.89831 13.601C2.18581 12.8885 1.62175 12.0507 1.20612 11.0875C0.790495 10.1243 0.582683 9.0951 0.582683 7.99996C0.582683 6.90482 0.790496 5.87565 1.20612 4.91246C1.62175 3.94926 2.18581 3.11142 2.89831 2.39892C3.61081 1.68642 4.44866 1.12235 5.41185 0.706729C6.37505 0.291104 7.40421 0.0832922 8.49935 0.0832923Z" fill="#919399"/>
</svg>
