<svg width="15" height="18" viewBox="0 0 15 18" fill="none" xmlns="http://www.w3.org/2000/svg">
<path d="M12.34 6.82373H10.75V1.82373C10.75 1.27373 10.3 0.82373 9.75 0.82373H5.75C5.2 0.82373 4.75 1.27373 4.75 1.82373V6.82373H3.16C2.27 6.82373 1.82 7.90373 2.45 8.53373L7.04 13.1237C7.43 13.5137 8.06 13.5137 8.45 13.1237L13.04 8.53373C13.67 7.90373 13.23 6.82373 12.34 6.82373ZM0.75 16.8237C0.75 17.3737 1.2 17.8237 1.75 17.8237H13.75C14.3 17.8237 14.75 17.3737 14.75 16.8237C14.75 16.2737 14.3 15.8237 13.75 15.8237H1.75C1.2 15.8237 0.75 16.2737 0.75 16.8237Z" fill="#919191"/>
</svg>
